<svg xmlns="http://www.w3.org/2000/svg" width="48" height="48" viewBox="0 0 12.7 12.7"><path d="M10.385 3.756v6.34c0 .477-.387.865-.865.865H3.18c-.477 0-.865-.387-.865-.865v-6.34c0-.477.387-.865.865-.865h.865v-.937c0-.12.097-.216.216-.216h.72c.12 0 .216.097.216.216v.937h2.306v-.937c0-.12.097-.216.216-.216h.72c.12 0 .216.097.216.216v.937h.865c.477 0 .865.387.865.865zM9.52 9.99V4.62H3.18V9.99c0 .06.05.108.108.108h6.124c.06 0 .108-.05.108-.108z" fill="#207dff"/><g stroke="#207dff"><g stroke-linecap="round" stroke-linejoin="round"><path d="M5.134 6.168l.415.415-.415.415" stroke-width=".5"/><g stroke-width=".6"><path d="M7.308 6.3v.58"/><path d="M6.94 7.94a.59.59 0 0 1-.886.511.59.59 0 0 1-.295-.511" opacity=".98" paint-order="stroke markers fill" fill-opacity=".005"/></g></g><path d="M3.217 10.05c-.022-.022-.028-.654-.028-2.725V4.63h6.314l-.012 5.437-3.123.006c-2.4.005-3.13-.001-3.15-.022zm3.516-1.304c.273-.134.454-.375.5-.668.03-.176-.001-.293-.095-.37-.1-.084-.2-.1-.318-.046-.115.057-.167.133-.195.29-.035.194-.136.274-.326.258-.123-.01-.235-.145-.235-.283 0-.105-.075-.214-.18-.26-.162-.072-.34-.007-.404.145-.043.104-.018.343.054.498.066.144.214.317.337.393.255.158.597.175.862.045zm-1.468-1.53c.075-.04.48-.447.517-.52.044-.086.03-.183-.042-.28-.076-.103-.382-.404-.47-.462-.142-.095-.357-.005-.388.162-.02.108.018.192.144.315.057.056.104.124.104.15s-.047.095-.104.15c-.125.123-.164.207-.144.315.03.164.227.25.383.167zm2.202-.075c.127-.075.14-.13.14-.552 0-.362-.003-.39-.053-.464-.034-.05-.09-.092-.15-.113-.09-.03-.107-.03-.207.012-.182.076-.2.133-.192.603l.007.394.087.08c.073.067.105.08.195.08.06 0 .137-.017.173-.038z" opacity=".98" fill="#0f3974" stroke-linejoin="round" paint-order="stroke markers fill" stroke-width=".053"/></g></svg>